<svg width="32" height="32" viewBox="0 0 32 32" fill="none" xmlns="http://www.w3.org/2000/svg"><circle cx="16" cy="16" r="16" fill="#011C40"/><path fill-rule="evenodd" clip-rule="evenodd" d="M1.64358 19.4211L7.44111 11.597L9.02716 12.4446L12.8011 6.3158L15.1528 9.11951L16.028 8.40225L19.4189 12.7055L21.8255 9.8366L28.5527 19.4211L22.0716 11.2711L21.087 14.6941L21.9895 17.4L16.192 9.41288L16.1292 12.1381L19.4189 19.4211L13.2659 8.14137L15.0435 14.2377L12.555 8.30439L11.1876 12.2491L11.461 9.67357L8.04263 18.9647L8.45274 15.0526L7.03078 13.4879L1.64358 19.4211Z" fill="#F9FBFD"/><path fill-rule="evenodd" clip-rule="evenodd" d="M30.5016 20.6448C21.3225 13.2329 7.03539 23.4227 1.26315 19.4931C7.60939 25.0617 22.4429 15.6482 30.5016 20.6448Z" fill="#F9FBFD"/><path fill-rule="evenodd" clip-rule="evenodd" d="M30.7368 21.2277C23.535 16.6388 12.8239 23.0248 7.33427 21.546C13.2828 24.433 24.3571 18.0362 30.7368 21.2277Z" fill="#F9FBFD"/></svg>